<svg width="25" height="25" viewBox="0 0 25 25" fill="none" xmlns="http://www.w3.org/2000/svg">
<path d="M18.624 2.06396H9.62402C8.52402 2.06396 7.62402 2.96396 7.62402 4.06396V16.064C7.62402 17.164 8.52402 18.064 9.62402 18.064H18.624C19.724 18.064 20.624 17.164 20.624 16.064V4.06396C20.624 2.96396 19.724 2.06396 18.624 2.06396ZM18.624 16.064H9.62402V4.06396H18.624V16.064ZM3.62402 15.064V13.064H5.62402V15.064H3.62402ZM3.62402 9.56396H5.62402V11.564H3.62402V9.56396ZM10.624 20.064H12.624V22.064H10.624V20.064ZM3.62402 18.564V16.564H5.62402V18.564H3.62402ZM5.62402 22.064C4.52402 22.064 3.62402 21.164 3.62402 20.064H5.62402V22.064ZM9.12402 22.064H7.12402V20.064H9.12402V22.064ZM14.124 22.064V20.064H16.124C16.124 21.164 15.224 22.064 14.124 22.064ZM5.62402 6.06396V8.06396H3.62402C3.62402 6.96396 4.52402 6.06396 5.62402 6.06396Z" fill="#404944"/>
</svg>
