<svg width="20" height="16" viewBox="0 0 20 16" fill="none" xmlns="http://www.w3.org/2000/svg">
<path d="M16.6153 1.88653C15.3854 1.3119 14.0703 0.894288 12.6955 0.656494C12.5266 0.961337 12.3294 1.37136 12.1933 1.69753C10.7318 1.47804 9.28374 1.47804 7.84909 1.69753C7.71311 1.37136 7.51136 0.961337 7.341 0.656494C5.96465 0.894288 4.64806 1.31344 3.41816 1.88957C0.937433 5.63297 0.264949 9.28339 0.601192 12.882C2.24654 14.1089 3.84108 14.8543 5.40871 15.342C5.79577 14.8101 6.14097 14.2446 6.43836 13.6486C5.87198 13.4337 5.32951 13.1685 4.81694 12.8607C4.95292 12.76 5.08594 12.6549 5.21444 12.5467C8.34075 14.0068 11.7376 14.0068 14.8265 12.5467C14.9565 12.6549 15.0895 12.76 15.224 12.8607C14.7099 13.17 14.166 13.4353 13.5996 13.6502C13.897 14.2446 14.2407 14.8116 14.6292 15.3435C16.1984 14.8558 17.7944 14.1105 19.4398 12.882C19.8343 8.7103 18.7658 5.0934 16.6153 1.88653ZM6.86427 10.6689C5.92579 10.6689 5.15615 9.79399 5.15615 8.72858C5.15615 7.66318 5.90935 6.78678 6.86427 6.78678C7.81922 6.78678 8.58883 7.66164 8.57239 8.72858C8.57388 9.79399 7.81922 10.6689 6.86427 10.6689ZM13.1767 10.6689C12.2382 10.6689 11.4686 9.79399 11.4686 8.72858C11.4686 7.66318 12.2217 6.78678 13.1767 6.78678C14.1316 6.78678 14.9012 7.66164 14.8848 8.72858C14.8848 9.79399 14.1316 10.6689 13.1767 10.6689Z" fill="white"/>
</svg>
