<svg width="68" height="52" viewBox="0 0 68 52" fill="none" xmlns="http://www.w3.org/2000/svg">
<path d="M19 1H67V35C67 35.5304 66.7893 36.0391 66.4142 36.4142C66.0391 36.7893 65.5304 37 65 37H21C20.4696 37 19.9609 36.7893 19.5858 36.4142C19.2107 36.0391 19 35.5304 19 35V1Z" stroke="#42CA9F" stroke-width="2" stroke-linecap="round" stroke-linejoin="round"/>
<path d="M67 1L43 23L19 1" stroke="#42CA9F" stroke-width="2" stroke-linecap="round" stroke-linejoin="round"/>
<path d="M19 51C28.9411 51 37 42.9411 37 33C37 23.0589 28.9411 15 19 15C9.05887 15 1 23.0589 1 33C1 42.9411 9.05887 51 19 51Z" fill="#222222" stroke="#42CA9F" stroke-width="2" stroke-linecap="round" stroke-linejoin="round"/>
<path d="M26.7959 37.4993C26.0052 38.8669 24.8686 40.0025 23.5002 40.792C22.1318 41.5815 20.5798 41.9971 19 41.9971C17.4202 41.9971 15.8683 41.5815 14.4999 40.7921C13.1315 40.0026 11.9948 38.867 11.2041 37.4994" stroke="#42CA9F" stroke-width="2" stroke-linecap="round" stroke-linejoin="round"/>
<path d="M12.25 31.5C13.4926 31.5 14.5 30.4926 14.5 29.25C14.5 28.0074 13.4926 27 12.25 27C11.0074 27 10 28.0074 10 29.25C10 30.4926 11.0074 31.5 12.25 31.5Z" fill="#42CA9F"/>
<path d="M25.75 31.5C26.9926 31.5 28 30.4926 28 29.25C28 28.0074 26.9926 27 25.75 27C24.5074 27 23.5 28.0074 23.5 29.25C23.5 30.4926 24.5074 31.5 25.75 31.5Z" fill="#42CA9F"/>
</svg>
