<svg width="12" height="12" viewBox="0 0 12 12" fill="none" xmlns="http://www.w3.org/2000/svg">
<g clip-path="url(#clip0_450_325)">
<path d="M5.24925 1.95C5.87819 1.62888 6.57903 1.47461 7.28468 1.50194C7.99032 1.52928 8.67713 1.73731 9.27934 2.10612C9.88155 2.47493 10.379 2.99216 10.7241 3.6083C11.0691 4.22443 11.2502 4.91883 11.25 5.625C11.25 5.72446 11.2895 5.81984 11.3598 5.89016C11.4302 5.96049 11.5255 6 11.625 6C11.7245 6 11.8198 5.96049 11.8902 5.89016C11.9605 5.81984 12 5.72446 12 5.625C12 4.33207 11.4864 3.09209 10.5721 2.17785C9.65791 1.26361 8.41793 0.75 7.125 0.75C5.83207 0.75 4.59209 1.26361 3.67785 2.17785C2.76361 3.09209 2.25 4.33207 2.25 5.625C2.24986 6.18122 2.37346 6.7305 2.61184 7.23304C2.85021 7.73559 3.1974 8.17882 3.62823 8.53061C4.05907 8.8824 4.56277 9.13394 5.10283 9.26702C5.64289 9.40009 6.20579 9.41135 6.75075 9.3C6.12181 9.62112 5.42097 9.77539 4.71532 9.74806C4.00968 9.72072 3.32287 9.51269 2.72066 9.14388C2.11845 8.77507 1.621 8.25784 1.27595 7.6417C0.9309 7.02557 0.749803 6.33117 0.75 5.625C0.75 5.52554 0.710491 5.43016 0.640165 5.35984C0.569839 5.28951 0.474456 5.25 0.375 5.25C0.275544 5.25 0.180161 5.28951 0.109835 5.35984C0.0395088 5.43016 0 5.52554 0 5.625C0 6.91793 0.513615 8.15791 1.42785 9.07215C2.34209 9.98639 3.58207 10.5 4.875 10.5C6.16793 10.5 7.40791 9.98639 8.32215 9.07215C9.23639 8.15791 9.75 6.91793 9.75 5.625C9.75014 5.06878 9.62654 4.5195 9.38816 4.01696C9.14979 3.51441 8.8026 3.07118 8.37177 2.71939C7.94093 2.3676 7.43723 2.11606 6.89717 1.98298C6.35711 1.84991 5.79421 1.83865 5.24925 1.95ZM7.5 5.625C7.5 6.02282 7.34196 6.40436 7.06066 6.68566C6.77936 6.96696 6.39782 7.125 6 7.125C5.60218 7.125 5.22064 6.96696 4.93934 6.68566C4.65804 6.40436 4.5 6.02282 4.5 5.625C4.5 5.22718 4.65804 4.84564 4.93934 4.56434C5.22064 4.28304 5.60218 4.125 6 4.125C6.39782 4.125 6.77936 4.28304 7.06066 4.56434C7.34196 4.84564 7.5 5.22718 7.5 5.625Z" fill="#E1E3E0"/>
</g>
<defs>
<clipPath id="clip0_450_325">
<rect width="12" height="12" fill="white"/>
</clipPath>
</defs>
</svg>
