<svg width="49" height="49" viewBox="0 0 49 49" fill="none" xmlns="http://www.w3.org/2000/svg">
<path d="M20.7711 26.14L17.3511 22.72C17.3711 22.84 17.3711 22.96 17.3711 23.08C17.3711 25.28 15.5711 27.08 13.3711 27.08C11.1711 27.08 9.37109 25.28 9.37109 23.08C9.37109 20.88 11.1711 19.08 13.3711 19.08C13.4911 19.08 13.6111 19.08 13.7311 19.1L10.3111 15.68C7.41109 16.88 5.37109 19.74 5.37109 23.08C5.37109 27.5 8.95109 31.08 13.3711 31.08C16.7111 31.08 19.5711 29.04 20.7711 26.14ZM23.7511 29.12C21.6711 32.68 17.7911 35.08 13.3711 35.08C6.75109 35.08 1.37109 29.7 1.37109 23.08C1.37109 18.66 3.77109 14.78 7.33109 12.7L2.15109 7.52001L4.97109 4.70001L41.7311 41.46L38.9111 44.28L23.7511 29.12ZM31.8911 25.94L34.3711 24.08L37.9911 26.8L41.7111 23.08L39.7111 21.08H27.0311L23.0311 17.08H41.3711L47.3711 23.08L38.3711 32.08L36.9911 31.06L31.8911 25.94Z" fill="#67DBB1"/>
</svg>
