<svg width="49" height="49" viewBox="0 0 49 49" fill="none" xmlns="http://www.w3.org/2000/svg">
<path d="M42.3711 20.49H25.6711C24.0311 15.83 19.5911 12.49 14.3711 12.49C7.75109 12.49 2.37109 17.87 2.37109 24.49C2.37109 31.11 7.75109 36.49 14.3711 36.49C19.5911 36.49 24.0311 33.15 25.6711 28.49H26.3711L30.3711 32.49L34.3711 28.49L38.3711 32.49L46.3711 24.41L42.3711 20.49ZM14.3711 30.49C11.0711 30.49 8.37109 27.79 8.37109 24.49C8.37109 21.19 11.0711 18.49 14.3711 18.49C17.6711 18.49 20.3711 21.19 20.3711 24.49C20.3711 27.79 17.6711 30.49 14.3711 30.49Z" fill="#67DBB1"/>
</svg>
