<svg width="48" height="26" viewBox="0 0 48 26" fill="none" xmlns="http://www.w3.org/2000/svg">
<path d="M43.4993 8.66667H25.4077C23.631 3.61833 18.821 0 13.166 0C5.99435 0 0.166016 5.82833 0.166016 13C0.166016 20.1717 5.99435 26 13.166 26C18.821 26 23.631 22.3817 25.4077 17.3333H26.166L30.4993 21.6667L34.8327 17.3333L39.166 21.6667L47.8327 12.9133L43.4993 8.66667ZM13.166 19.5C9.59101 19.5 6.66602 16.575 6.66602 13C6.66602 9.425 9.59101 6.5 13.166 6.5C16.741 6.5 19.666 9.425 19.666 13C19.666 16.575 16.741 19.5 13.166 19.5Z" fill="#7B61FF"/>
</svg>
