<svg width="12" height="12" viewBox="0 0 12 12" fill="none" xmlns="http://www.w3.org/2000/svg">
<g clip-path="url(#clip0_450_26)">
<path d="M5.74334 4.6851C5.82584 4.4376 6.17534 4.4376 6.25784 4.6851L6.74159 6.13785C6.84807 6.4572 7.02747 6.74736 7.26557 6.98533C7.50367 7.22331 7.79393 7.40255 8.11334 7.50885L9.56534 7.9926C9.81284 8.0751 9.81284 8.4246 9.56534 8.5071L8.11259 8.99085C7.79324 9.09733 7.50308 9.27673 7.26511 9.51483C7.02714 9.75293 6.8479 10.0432 6.74159 10.3626L6.25784 11.8146C6.24006 11.8688 6.20561 11.916 6.15941 11.9494C6.11321 11.9829 6.05763 12.0009 6.00059 12.0009C5.94355 12.0009 5.88797 11.9829 5.84177 11.9494C5.79558 11.916 5.76113 11.8688 5.74334 11.8146L5.25959 10.3619C5.15319 10.0426 4.9739 9.75247 4.73594 9.51451C4.49797 9.27654 4.20786 9.09725 3.88859 8.99085L2.43584 8.5071C2.38164 8.48931 2.33445 8.45487 2.30099 8.40867C2.26753 8.36247 2.24952 8.30689 2.24952 8.24985C2.24952 8.19281 2.26753 8.13723 2.30099 8.09103C2.33445 8.04484 2.38164 8.01039 2.43584 7.9926L3.88859 7.50885C4.20786 7.40245 4.49797 7.22316 4.73594 6.9852C4.9739 6.74723 5.15319 6.45712 5.25959 6.13785L5.74334 4.6851ZM2.84609 0.860853C2.85685 0.828374 2.87756 0.80011 2.9053 0.780078C2.93303 0.760045 2.96638 0.749263 3.00059 0.749263C3.0348 0.749263 3.06815 0.760045 3.09588 0.780078C3.12362 0.80011 3.14434 0.828374 3.15509 0.860853L3.44534 1.73235C3.57509 2.12085 3.87959 2.42535 4.26809 2.5551L5.13959 2.84535C5.17207 2.85611 5.20033 2.87682 5.22037 2.90456C5.2404 2.9323 5.25118 2.96564 5.25118 2.99985C5.25118 3.03407 5.2404 3.06741 5.22037 3.09514C5.20033 3.12288 5.17207 3.1436 5.13959 3.15435L4.26809 3.4446C4.07649 3.50844 3.90238 3.61603 3.75957 3.75883C3.61676 3.90164 3.50918 4.07575 3.44534 4.26735L3.15509 5.13885C3.14434 5.17133 3.12362 5.19959 3.09588 5.21963C3.06815 5.23966 3.0348 5.25044 3.00059 5.25044C2.96638 5.25044 2.93303 5.23966 2.9053 5.21963C2.87756 5.19959 2.85685 5.17133 2.84609 5.13885L2.55584 4.26735C2.492 4.07575 2.38442 3.90164 2.24161 3.75883C2.0988 3.61603 1.9247 3.50844 1.73309 3.4446L0.86159 3.15435C0.829111 3.1436 0.800847 3.12288 0.780815 3.09514C0.760782 3.06741 0.75 3.03407 0.75 2.99985C0.75 2.96564 0.760782 2.9323 0.780815 2.90456C0.800847 2.87682 0.829111 2.85611 0.86159 2.84535L1.73309 2.5551C1.9247 2.49127 2.0988 2.38368 2.24161 2.24087C2.38442 2.09806 2.492 1.92396 2.55584 1.73235L2.84609 0.860853ZM8.14784 0.0741035C8.15525 0.0527482 8.16912 0.0342305 8.18753 0.0211247C8.20595 0.00801899 8.22799 0.000976562 8.25059 0.000976562C8.27319 0.000976563 8.29523 0.00801899 8.31365 0.0211247C8.33206 0.0342305 8.34594 0.0527482 8.35334 0.0741035L8.54684 0.654603C8.63309 0.914103 8.83634 1.11735 9.09584 1.2036L9.67634 1.3971C9.6977 1.40451 9.71622 1.41838 9.72932 1.4368C9.74243 1.45521 9.74947 1.47725 9.74947 1.49985C9.74947 1.52246 9.74243 1.5445 9.72932 1.56291C9.71622 1.58133 9.6977 1.5952 9.67634 1.6026L9.09584 1.7961C8.96796 1.83865 8.85175 1.91042 8.75645 2.00571C8.66115 2.10101 8.58938 2.21722 8.54684 2.3451L8.35334 2.9256C8.34594 2.94696 8.33206 2.96548 8.31365 2.97858C8.29523 2.99169 8.27319 2.99873 8.25059 2.99873C8.22799 2.99873 8.20595 2.99169 8.18753 2.97858C8.16912 2.96548 8.15525 2.94696 8.14784 2.9256L7.95434 2.3451C7.9118 2.21722 7.84003 2.10101 7.74473 2.00571C7.64943 1.91042 7.53323 1.83865 7.40534 1.7961L6.82559 1.6026C6.80424 1.5952 6.78572 1.58133 6.77261 1.56291C6.75951 1.5445 6.75246 1.52246 6.75246 1.49985C6.75246 1.47725 6.75951 1.45521 6.77261 1.4368C6.78572 1.41838 6.80424 1.40451 6.82559 1.3971L7.40609 1.2036C7.66559 1.11735 7.86884 0.914103 7.95509 0.654603L8.14784 0.0748535V0.0741035Z" fill="#E1E3E0"/>
</g>
<defs>
<clipPath id="clip0_450_26">
<rect width="12" height="12" fill="white"/>
</clipPath>
</defs>
</svg>
