<svg width="12" height="12" viewBox="0 0 12 12" fill="none" xmlns="http://www.w3.org/2000/svg">
<path fill-rule="evenodd" clip-rule="evenodd" d="M10.8116 2.46755L6 0.150391L1.18837 2.46755L0 7.67415L3.32975 11.8495H8.67025L12 7.67415L10.8116 2.46755ZM7.18837 5.357L7.48188 6.64292L6.6595 7.67415H5.3405L4.51812 6.64292L4.81163 5.357L6 4.78471L7.18837 5.357Z" fill="white" fill-opacity="0.9"/>
<path fill-rule="evenodd" clip-rule="evenodd" d="M10.8116 2.46755L6 0.150391L1.18837 2.46755L0 7.67415L3.32975 11.8495H8.67025L12 7.67415L10.8116 2.46755ZM7.18837 5.357L7.48188 6.64292L6.6595 7.67415H5.3405L4.51812 6.64292L4.81163 5.357L6 4.78471L7.18837 5.357Z" fill="url(#paint0_linear_450_32)"/>
<path d="M7.48188 6.64292L7.18837 5.357L6 4.78471L4.81163 5.357L4.51812 6.64292L5.3405 7.67415H6.6595L7.48188 6.64292Z" fill="white" fill-opacity="0.9"/>
<path d="M7.48188 6.64292L7.18837 5.357L6 4.78471L4.81163 5.357L4.51812 6.64292L5.3405 7.67415H6.6595L7.48188 6.64292Z" fill="url(#paint1_linear_450_32)"/>
<defs>
<linearGradient id="paint0_linear_450_32" x1="6" y1="0.150391" x2="6" y2="11.8495" gradientUnits="userSpaceOnUse">
<stop stop-color="#FF533C"/>
<stop offset="1" stop-color="#FF1F00"/>
</linearGradient>
<linearGradient id="paint1_linear_450_32" x1="6" y1="0.150391" x2="6" y2="11.8495" gradientUnits="userSpaceOnUse">
<stop stop-color="#FF533C"/>
<stop offset="1" stop-color="#FF1F00"/>
</linearGradient>
</defs>
</svg>
