<svg width="18" height="9" viewBox="0 0 18 9" fill="none" xmlns="http://www.w3.org/2000/svg">
<path d="M13.1777 0.125H9.67773V1.875H13.1777C14.6215 1.875 15.8027 3.05625 15.8027 4.5C15.8027 5.94375 14.6215 7.125 13.1777 7.125H9.67773V8.875H13.1777C15.5927 8.875 17.5527 6.915 17.5527 4.5C17.5527 2.085 15.5927 0.125 13.1777 0.125ZM7.92773 7.125H4.42773C2.98398 7.125 1.80273 5.94375 1.80273 4.5C1.80273 3.05625 2.98398 1.875 4.42773 1.875H7.92773V0.125H4.42773C2.01273 0.125 0.0527344 2.085 0.0527344 4.5C0.0527344 6.915 2.01273 8.875 4.42773 8.875H7.92773V7.125ZM5.30273 3.625H12.3027V5.375H5.30273V3.625Z" fill="#5484FF"/>
</svg>
