<svg width="12" height="12" viewBox="0 0 12 12" fill="none" xmlns="http://www.w3.org/2000/svg">
<path d="M6.00924 8.58096C6.00609 8.58176 6.00326 8.58217 6.00076 8.58217C5.85898 8.58217 4.64586 7.26938 4.64586 5.64997C4.64586 3.75331 5.82339 2.71777 6.00076 2.71777C6.14386 2.71777 6.93791 3.39812 7.23946 4.65181C7.23945 4.65182 7.23947 4.65181 7.23946 4.65181C7.3117 4.95213 7.3557 5.28532 7.3557 5.64996C7.3557 7.24095 6.18479 8.53599 6.00924 8.58096Z" fill="#E1E3E0"/>
<path d="M5.8424 8.63578C5.83546 8.63033 5.82848 8.62465 5.82147 8.6188C5.76881 8.57479 5.70549 8.51265 5.63613 8.43565C5.49699 8.28121 5.32737 8.0601 5.1629 7.78824C4.83465 7.24563 4.52052 6.49004 4.52052 5.64996C4.52052 5.24953 4.57159 4.88604 4.65448 4.56111C3.71986 3.79092 2.75006 3.6993 2.63714 3.77837C2.49184 3.88011 2.12123 5.40377 3.20911 6.95743C4.03513 8.13711 5.31791 8.70087 5.8424 8.63578Z" fill="#E1E3E0"/>
<path d="M7.346 4.56059C7.42954 4.88599 7.48107 5.24975 7.48107 5.64996C7.48107 6.49004 7.16694 7.24563 6.83869 7.78824C6.67422 8.0601 6.5046 8.28121 6.36546 8.43565C6.2961 8.51265 6.23278 8.57479 6.18012 8.6188C6.1731 8.62466 6.16611 8.63034 6.15916 8.6358C6.68379 8.70074 7.96647 8.13697 8.7924 6.95743C9.87466 5.4118 9.50966 3.88011 9.36437 3.77837C9.25132 3.69921 8.28277 3.78628 7.346 4.56059Z" fill="#E1E3E0"/>
<path d="M6.1192 8.75672C6.13748 8.75966 6.15601 8.76185 6.17465 8.76337C6.26554 8.77081 6.36856 8.76333 6.47879 8.74352C6.69937 8.70388 6.96176 8.61255 7.23842 8.47271C7.79205 8.19289 8.41757 7.71135 8.89513 7.02933C9.04811 6.81084 9.17306 6.5925 9.27439 6.37806C10.6801 6.27052 11.6263 6.91892 11.6652 7.06436C11.7111 7.23569 11.0062 8.64365 9.18361 9.132C7.8306 9.49454 6.52105 9.13289 6.1192 8.75672Z" fill="#E1E3E0"/>
<path d="M5.88207 8.75674C5.86385 8.75967 5.84538 8.76185 5.82679 8.76337C5.7359 8.77081 5.63289 8.76333 5.52266 8.74352C5.3021 8.70388 5.03972 8.61255 4.76307 8.47271C4.20948 8.19288 3.584 7.71135 3.10644 7.02933C2.95341 6.81078 2.82836 6.59265 2.72689 6.37862C1.32667 6.27328 0.375045 6.919 0.336105 7.06433C0.290196 7.23566 0.985682 8.64108 2.81772 9.13197C4.17069 9.4945 5.4802 9.13291 5.88207 8.75674Z" fill="#E1E3E0"/>
</svg>
