<svg width="49" height="49" viewBox="0 0 49 49" fill="none" xmlns="http://www.w3.org/2000/svg">
<path d="M4.37109 32.49H44.3711V36.49H4.37109V32.49ZM6.67109 24.39L8.37109 21.43L10.0711 24.39L12.6711 22.89L10.9711 19.93H14.3711V16.93H10.9711L12.6711 13.99L10.0711 12.49L8.37109 15.43L6.67109 12.49L4.07109 13.99L5.77109 16.93H2.37109V19.93H5.77109L4.07109 22.89L6.67109 24.39ZM20.0711 22.89L22.6711 24.39L24.3711 21.43L26.0711 24.39L28.6711 22.89L26.9711 19.93H30.3711V16.93H26.9711L28.6711 13.99L26.0711 12.49L24.3711 15.43L22.6711 12.49L20.0711 13.99L21.7711 16.93H18.3711V19.93H21.7711L20.0711 22.89ZM46.3711 16.93H42.9711L44.6711 13.99L42.0711 12.49L40.3711 15.43L38.6711 12.49L36.0711 13.99L37.7711 16.93H34.3711V19.93H37.7711L36.0711 22.89L38.6711 24.39L40.3711 21.43L42.0711 24.39L44.6711 22.89L42.9711 19.93H46.3711V16.93Z" fill="#67DBB1"/>
</svg>
