<svg width="41" height="41" viewBox="0 0 41 41" fill="none" xmlns="http://www.w3.org/2000/svg">
<path d="M19.3996 20.6471C20.6829 18.3305 23.1496 16.9638 24.5829 14.9138C26.0996 12.7638 25.2496 8.74714 20.9496 8.74714C18.1329 8.74714 16.7496 10.8805 16.1663 12.6471L11.8496 10.8305C13.0329 7.28047 16.2496 4.23047 20.9329 4.23047C24.8496 4.23047 27.5329 6.0138 28.8996 8.24714C30.0663 10.1638 30.7496 13.7471 28.9496 16.4138C26.9496 19.3638 25.0329 20.2638 23.9996 22.1638C23.5829 22.9305 23.4163 23.4305 23.4163 25.8971H18.5996C18.5829 24.5971 18.3829 22.4805 19.3996 20.6471ZM24.2829 32.5638C24.2829 34.3971 22.7829 35.8971 20.9496 35.8971C19.1163 35.8971 17.6163 34.3971 17.6163 32.5638C17.6163 30.7305 19.1163 29.2305 20.9496 29.2305C22.7829 29.2305 24.2829 30.7305 24.2829 32.5638Z" fill="white"/>
</svg>
