<svg width="40" height="34" viewBox="0 0 40 34" fill="none" xmlns="http://www.w3.org/2000/svg">
<path d="M16.1296 3.21948L5.46289 7.21948V15.3395C5.46289 22.0728 10.0096 28.3528 16.1296 29.8862C22.2496 28.3528 26.7962 22.0728 26.7962 15.3395V7.21948L16.1296 3.21948ZM24.1296 15.3395C24.1296 20.6728 20.7296 25.6061 16.1296 27.1128C11.5296 25.6061 8.12956 20.6861 8.12956 15.3395V8.96615L16.1296 6.13948L24.1296 8.96615V15.3395ZM11.8896 14.6728L9.99622 16.5528L14.7162 21.2728L22.2629 13.7261L20.3829 11.8461L14.7296 17.4995L11.8896 14.6728Z" fill="white"/>
<path d="M30.6817 23.457H33.4184V32.5528H30.6817V23.457Z" fill="white"/>
<path d="M30.1932 22.8357L32.1283 20.9005L38.56 27.3322L36.6249 29.2674L30.1932 22.8357Z" fill="white"/>
<path d="M34.0641 22.8357L32.1283 20.9005L25.6973 27.3322L27.6324 29.2674L34.0641 22.8357Z" fill="white"/>
</svg>
