<svg width="70" height="70" viewBox="0 0 70 70" fill="none" xmlns="http://www.w3.org/2000/svg">
<path d="M46.9148 31.5941C49.735 31.5941 52.0212 29.3078 52.0212 26.4876C52.0212 23.6674 49.735 21.3812 46.9148 21.3812C44.0946 21.3812 41.8084 23.6674 41.8084 26.4876C41.8084 29.3078 44.0946 31.5941 46.9148 31.5941Z" fill="#F0AAAA"/>
<path d="M23.0848 31.5941C25.905 31.5941 28.1912 29.3078 28.1912 26.4876C28.1912 23.6674 25.905 21.3812 23.0848 21.3812C20.2646 21.3812 17.9784 23.6674 17.9784 26.4876C17.9784 29.3078 20.2646 31.5941 23.0848 31.5941Z" fill="#F0AAAA"/>
<path d="M34.9998 41.8069C27.0678 41.8069 20.2933 46.7431 17.5699 53.7219H23.255C25.604 49.6708 29.9615 46.9133 34.9998 46.9133C40.0381 46.9133 44.3616 49.6708 46.7446 53.7219H52.4297C49.7063 46.7431 42.9318 41.8069 34.9998 41.8069ZM34.9658 0.955566C16.1741 0.955566 0.957031 16.2067 0.957031 34.9983C0.957031 53.7899 16.1741 69.0411 34.9658 69.0411C53.7914 69.0411 69.0426 53.7899 69.0426 34.9983C69.0426 16.2067 53.7914 0.955566 34.9658 0.955566ZM34.9998 62.2326C19.9529 62.2326 7.76559 50.0452 7.76559 34.9983C7.76559 19.9514 19.9529 7.76412 34.9998 7.76412C50.0467 7.76412 62.234 19.9514 62.234 34.9983C62.234 50.0452 50.0467 62.2326 34.9998 62.2326Z" fill="#F0AAAA"/>
</svg>
