<svg width="20" height="16" viewBox="0 0 20 16" fill="none" xmlns="http://www.w3.org/2000/svg">
<path d="M17.5754 4.26979C17.5869 4.43099 17.5869 4.5922 17.5869 4.75489C17.5869 9.71211 13.6657 15.4293 6.49569 15.4293V15.4263C4.37763 15.4293 2.30357 14.8454 0.520508 13.7445C0.828491 13.7801 1.13802 13.7979 1.44832 13.7987C3.20359 13.8002 4.90869 13.2334 6.28959 12.1896C4.62154 12.1592 3.15882 11.1124 2.64783 9.58434C3.23215 9.6928 3.83422 9.67051 4.40773 9.51971C2.58917 9.1661 1.28082 7.62834 1.28082 5.84246C1.28082 5.82612 1.28082 5.81052 1.28082 5.79492C1.82268 6.08538 2.42938 6.24658 3.04998 6.26441C1.33716 5.16273 0.809194 2.96975 1.84352 1.25519C3.82264 3.59897 6.74269 5.02381 9.87732 5.17461C9.56316 3.8716 9.99233 2.50619 11.005 1.59022C12.5751 0.169841 15.0443 0.242644 16.5202 1.75291C17.3932 1.58725 18.2299 1.27896 18.9956 0.842146C18.7046 1.71057 18.0956 2.44825 17.282 2.91701C18.0547 2.82935 18.8096 2.63025 19.5205 2.32642C18.9972 3.08118 18.338 3.73863 17.5754 4.26979Z" fill="white"/>
</svg>
