<svg width="40" height="34" viewBox="0 0 40 34" fill="none" xmlns="http://www.w3.org/2000/svg">
<path d="M16.5534 3.21924L5.88672 7.21924V15.3392C5.88672 22.0726 10.4334 28.3526 16.5534 29.8859C22.6734 28.3526 27.2201 22.0726 27.2201 15.3392V7.21924L16.5534 3.21924ZM24.5534 15.3392C24.5534 20.6726 21.1534 25.6059 16.5534 27.1126C11.9534 25.6059 8.55339 20.6859 8.55339 15.3392V9.07257L16.5534 6.07257L24.5534 9.07257V15.3392Z" fill="white"/>
<path d="M31.1055 29.9961H33.8422V20.9003H31.1055V29.9961Z" fill="white"/>
<path d="M30.617 30.6174L32.5522 32.5526L38.9839 26.1209L37.0487 24.1857L30.617 30.6174Z" fill="white"/>
<path d="M34.488 30.6174L32.5522 32.5526L26.1211 26.1209L28.0563 24.1857L34.488 30.6174Z" fill="white"/>
</svg>
