<svg width="70" height="63" viewBox="0 0 70 63" fill="none" xmlns="http://www.w3.org/2000/svg">
<path d="M21 5.17391V38.5652C21 39.6722 21.4398 40.7339 22.2225 41.5166C23.0053 42.2994 24.0669 42.7391 25.1739 42.7391H66.913C67.4665 42.7391 67.9974 42.5193 68.3887 42.1279C68.7801 41.7365 69 41.2057 69 40.6522V11.4348C69 10.8813 68.7801 10.3505 68.3887 9.95908C67.9974 9.5677 67.4665 9.34783 66.913 9.34783H25.1739C24.0669 9.34783 23.0053 8.90807 22.2225 8.12531C21.4398 7.34255 21 6.2809 21 5.17391ZM21 5.17391C21 4.06692 21.4398 3.00527 22.2225 2.22251C23.0053 1.43975 24.0669 1 25.1739 1H60.6522" stroke="#42CA9F" stroke-width="2" stroke-linecap="round" stroke-linejoin="round"/>
<path d="M57.5218 29.174C59.2507 29.174 60.6522 27.7724 60.6522 26.0435C60.6522 24.3146 59.2507 22.9131 57.5218 22.9131C55.7929 22.9131 54.3914 24.3146 54.3914 26.0435C54.3914 27.7724 55.7929 29.174 57.5218 29.174Z" fill="#42CA9F"/>
<path d="M19 62C28.9411 62 37 53.9411 37 44C37 34.0589 28.9411 26 19 26C9.05887 26 1 34.0589 1 44C1 53.9411 9.05887 62 19 62Z" fill="#222222" stroke="#42CA9F" stroke-width="2" stroke-miterlimit="10"/>
<path d="M11 50H26" stroke="#42CA9F" stroke-width="2" stroke-linecap="round" stroke-linejoin="round"/>
<path d="M12 42C13.1046 42 14 41.1046 14 40C14 38.8954 13.1046 38 12 38C10.8954 38 10 38.8954 10 40C10 41.1046 10.8954 42 12 42Z" fill="#42CA9F"/>
<path d="M25.5 42C26.8807 42 28 41.1046 28 40C28 38.8954 26.8807 38 25.5 38C24.1193 38 23 38.8954 23 40C23 41.1046 24.1193 42 25.5 42Z" fill="#42CA9F"/>
</svg>
