<svg width="12" height="12" viewBox="0 0 12 12" fill="none" xmlns="http://www.w3.org/2000/svg">
<path d="M2.0778 9.80629C2.13666 9.7068 2.18472 9.62084 2.23883 9.53798C2.25583 9.51238 2.28343 9.48842 2.3125 9.46902C2.40136 9.40024 2.49314 9.3406 2.58199 9.27182C2.69534 9.18511 2.81326 9.09693 2.92369 9.00108C2.98658 8.94565 3.05111 8.87962 3.07779 8.80555C3.12493 8.66948 3.22896 8.60088 3.33445 8.53685C3.41088 8.49221 3.49334 8.45067 3.56976 8.40603C3.70433 8.3226 3.83432 8.24064 3.96889 8.15722C4.06524 8.09611 4.14202 8.02112 4.22191 7.94008C4.31112 7.84094 4.4124 7.74802 4.51954 7.67338C4.80584 7.46574 5.09362 7.26268 5.38578 7.07333C5.66569 6.89294 5.96061 6.72791 6.25992 6.5766C6.32098 6.54695 6.38059 6.51274 6.43562 6.47999C6.71553 6.29961 6.99252 6.11008 7.24262 5.8838C7.29783 5.83587 7.35304 5.78795 7.40972 5.74459C7.77702 5.49085 8.14286 5.23254 8.51912 4.99105C8.69501 4.87927 8.89486 4.79509 9.08574 4.69867C9.26438 4.61121 9.44758 4.52228 9.62768 4.43939C9.67193 4.42018 9.71782 4.39036 9.76499 4.38028C10.0054 4.32846 10.2283 4.22179 10.4541 4.12426C10.5167 4.09919 10.5792 4.07412 10.6432 4.05362C10.6523 4.05069 10.6719 4.06458 10.6809 4.07683C10.6869 4.07994 10.6836 4.10115 10.6805 4.10719C10.6743 4.11926 10.6635 4.13279 10.6527 4.14633C10.4407 4.36546 10.209 4.5707 9.95802 4.74687C9.79421 4.86487 9.6454 4.99822 9.48908 5.1239C9.44466 5.15829 9.40626 5.19578 9.36184 5.23018C9.0386 5.47988 8.72141 5.73269 8.39067 5.97472C7.97876 6.27803 7.55204 6.55081 7.13281 6.83126C7.01653 6.90883 6.89732 6.97725 6.77061 7.038C6.44388 7.1981 6.15885 7.42549 5.88279 7.66512C5.61442 7.89725 5.33543 8.12775 5.04016 8.32313C4.87342 8.43198 4.70814 8.54541 4.53829 8.6603C4.48472 8.69762 4.42658 8.7364 4.37594 8.78287C4.21488 8.92518 4.03296 9.03386 3.84207 9.13028C3.70312 9.19999 3.56709 9.27885 3.41331 9.31803C3.35699 9.33102 3.30635 9.37749 3.25735 9.41334C3.17618 9.47463 3.08915 9.51762 2.98858 9.54984C2.77684 9.61262 2.56199 9.68144 2.35172 9.7488C2.27236 9.78429 2.17948 9.80901 2.0778 9.80629Z" fill="#E1E3E0"/>
<path d="M8.63789 1.17796C8.52329 1.37092 8.38361 1.50135 8.22601 1.60727C8.07445 1.7163 7.94246 1.83922 7.81486 1.97586C7.76714 2.03147 7.71193 2.07939 7.65379 2.11818C7.50077 2.22264 7.34481 2.31796 7.19032 2.41785C7.1276 2.4581 7.068 2.49231 7.00822 2.5417C6.79523 2.71073 6.56871 2.86897 6.33779 3.0135C6.295 3.03729 6.25368 3.06564 6.21237 3.094C6.04873 3.19682 5.9032 3.30896 5.78896 3.47156C5.76117 3.5107 5.72132 3.54362 5.68146 3.57655C5.56208 3.66016 5.44269 3.74376 5.32184 3.82279C5.28052 3.85115 5.23024 3.86726 5.18452 3.8819C5.03514 3.93479 4.89764 4.00907 4.76765 4.09103C4.67587 4.15067 4.56909 4.19496 4.47438 4.24546C4.31239 4.33767 4.1535 4.42384 3.99901 4.52373C3.87816 4.60277 3.74541 4.66041 3.61121 4.71348C3.2499 4.84433 2.89153 4.98432 2.53461 5.12889C2.3653 5.19825 2.21227 5.30271 2.08614 5.44392C1.98468 5.55202 1.8684 5.62959 1.72815 5.67955C1.45077 5.77344 1.19425 5.90097 0.945048 6.05136C0.775377 6.15107 0.598387 6.22792 0.412432 6.29253C0.407861 6.29399 0.401825 6.29089 0.39579 6.28778C0.404182 6.21957 0.441107 6.1775 0.497605 6.14932C0.737486 6.01704 0.956511 5.85112 1.162 5.67441C1.29692 5.56063 1.40788 5.41924 1.51884 5.27785C1.65137 5.1094 1.78079 4.94697 1.91332 4.77852C1.96414 4.71688 2.02538 4.67206 2.10602 4.65631C2.19123 4.63909 2.27809 4.61127 2.3664 4.58802C2.57339 4.54188 2.7491 4.44528 2.91456 4.31668C3.14583 4.14179 3.37857 3.97147 3.61734 3.80427C3.89744 3.6087 4.18046 3.42228 4.46202 3.23129C4.66861 3.08951 4.89167 2.96765 5.12206 2.86866C5.25023 2.81248 5.36797 2.73948 5.48279 2.65734C5.5945 2.58124 5.70164 2.5066 5.81334 2.4305C5.86381 2.39921 5.9203 2.37103 5.97533 2.33828C6.07315 2.28175 6.17536 2.23893 6.26568 2.17472C6.57338 1.95519 6.91365 1.80587 7.26288 1.66881C7.29031 1.66002 7.31774 1.65124 7.33913 1.63934C7.45851 1.55574 7.5984 1.53613 7.73518 1.52256C7.88714 1.50917 8.02738 1.45921 8.15738 1.37724C8.29944 1.3015 8.44607 1.22428 8.63789 1.17796Z" fill="#E1E3E0"/>
<path d="M9.8191 2.81988C9.63025 3.00134 9.43994 3.17822 9.24506 3.35657C9.2021 3.39554 9.14706 3.42828 9.0935 3.4656C8.79676 3.65642 8.49856 3.84266 8.18993 4.01209C8.05701 4.08491 7.93452 4.17454 7.81659 4.26272C7.73085 4.32547 7.66157 4.40814 7.57582 4.47089C7.10431 4.80841 6.63572 5.15508 6.09121 5.37485C6.0104 5.40578 5.92208 5.42903 5.83669 5.46142C5.64763 5.53206 5.47046 5.6241 5.30518 5.73752C4.87827 6.02547 4.45593 6.31196 4.02903 6.59992C3.93414 6.66559 3.83468 6.73273 3.77125 6.83369C3.74804 6.87137 3.70526 6.89516 3.67308 6.92058C3.55991 6.99212 3.44381 7.05451 3.3246 7.12293C3.18857 7.20179 3.05108 7.27607 2.92401 7.36717C2.7357 7.5031 2.52817 7.59477 2.31168 7.6742C2.09209 7.75966 1.86956 7.83598 1.66625 7.95655C1.64029 7.9699 1.60682 7.97558 1.558 7.99626C1.58632 7.91158 1.63386 7.87116 1.68596 7.82927C1.86842 7.67506 2.05984 7.5331 2.26479 7.40193C2.30611 7.37357 2.35054 7.33918 2.37375 7.3015C2.42018 7.22615 2.48599 7.17986 2.55638 7.13211C2.61452 7.09333 2.67577 7.04851 2.73391 7.00973C2.83794 6.94112 2.92551 6.85259 2.97997 6.73938C3.00647 6.68049 3.04943 6.64153 3.103 6.60421C3.2116 6.53414 3.31417 6.46096 3.42131 6.38632C3.48859 6.34461 3.54691 6.29065 3.58712 6.22736C3.62587 6.15951 3.68401 6.12073 3.74672 6.08048C3.87835 5.98791 4.01603 5.89845 4.14913 5.81045C4.19502 5.78063 4.24548 5.74935 4.28387 5.71185C4.43268 5.5785 4.59925 5.48482 4.77934 5.40193C4.95798 5.31447 5.13369 5.21787 5.30793 5.11669C5.52349 4.98716 5.74948 4.87445 5.96797 4.75406C6.04896 4.70796 6.13453 4.66039 6.21406 4.60971C6.45723 4.45622 6.696 4.28901 6.9452 4.13862C7.06295 4.06562 7.20009 4.0217 7.32076 3.95784C7.58953 3.82135 7.85684 3.68028 8.11811 3.53611C8.45728 3.35186 8.79644 3.16762 9.13103 2.98484C9.22574 2.93434 9.32338 2.89299 9.4298 2.87906C9.53476 2.86056 9.63679 2.83292 9.74029 2.80985C9.75857 2.80399 9.77978 2.80728 9.8041 2.80453C9.8041 2.80453 9.81617 2.81074 9.8191 2.81988Z" fill="#E1E3E0"/>
<path d="M3.55117 10.7566C3.57546 10.6278 3.66284 10.5545 3.74713 10.4872C3.88808 10.3765 4.02904 10.2658 4.17293 10.1643C4.65651 9.83297 5.14156 9.50623 5.63264 9.1826C5.81931 9.05728 6.01184 8.95025 6.19851 8.82493C6.52906 8.59808 6.87004 8.38806 7.18724 8.13525C7.55198 7.84201 7.94067 7.57638 8.34272 7.33671C8.60107 7.18339 8.85648 7.02093 9.11483 6.86761C9.2035 6.81401 9.29821 6.76351 9.39438 6.71758C9.61727 6.61091 9.82826 6.48284 10.0242 6.33942C10.2202 6.196 10.425 6.08 10.6552 5.99618C10.768 5.955 10.8796 5.89408 10.9909 5.84833C11.1694 5.77605 11.3539 5.70687 11.5566 5.63184C11.5316 5.6953 11.4934 5.71762 11.4598 5.73847C11.3449 5.82061 11.2347 5.90129 11.1184 5.97886C10.9041 6.12814 10.6928 6.28656 10.4979 6.46491C10.4396 6.51887 10.3798 6.56827 10.3186 6.61309C9.93115 6.89847 9.54374 7.18385 9.1534 7.46009C9.02176 7.55265 8.87513 7.62987 8.7391 7.70872C8.61678 7.78318 8.48093 7.84686 8.36155 7.93046C8.04324 8.14835 7.69512 8.32034 7.36492 8.51683C7.05154 8.7029 6.7442 8.89207 6.46814 9.1317C6.42061 9.17213 6.37161 9.20799 6.32114 9.23927C6.07944 9.39734 5.8317 9.55229 5.59 9.71036C5.50279 9.76854 5.41705 9.83128 5.3313 9.89403C5.19966 9.9866 5.06803 10.0792 4.93786 10.1763C4.88429 10.2136 4.83218 10.2555 4.78154 10.302C4.68648 10.3828 4.58848 10.4545 4.47109 10.4972C4.34603 10.5473 4.227 10.6006 4.09315 10.6233C4.0019 10.6374 3.9103 10.6819 3.8293 10.728C3.74209 10.7861 3.65231 10.8048 3.55117 10.7566Z" fill="#E1E3E0"/>
<path d="M5.95263 6.77551C5.91588 6.8024 5.87492 6.8004 5.83432 6.76805C5.87528 6.77005 5.91624 6.77205 5.95263 6.77551C5.95409 6.78008 5.95263 6.77551 5.95263 6.77551Z" fill="#E1E3E0"/>
</svg>
