<svg width="10" height="10" viewBox="0 0 10 10" fill="none" xmlns="http://www.w3.org/2000/svg">
<path d="M7.97 6.02C7.8 6.19 7.615 6.34 7.42 6.48L7 5.75V4.5H7.5V4H4.69L3.825 2.5H2L2.5 2.88L1.75 3.75L2.225 4.25L3 3.755V5.75L2.58 6.48C2.385 6.345 2.2 6.19 2.03 6.02L1.5 6.55C2.435 7.485 3.68 8 5 8C6.32 8 7.565 7.485 8.5 6.55L7.97 6.02ZM3.225 6.855L3.24 6.825L3.645 6.12C4.515 6.445 5.475 6.445 6.345 6.12L6.75 6.825L6.765 6.855C6.215 7.11 5.615 7.25 4.99 7.25C4.365 7.25 3.775 7.115 3.225 6.855ZM9 1V9H1V1H9ZM9 0H1C0.45 0 0 0.45 0 1V9C0 9.55 0.45 10 1 10H9C9.55 10 10 9.55 10 9V1C10 0.45 9.55 0 9 0Z" fill="#404944"/>
</svg>
