<svg width="13" height="11" viewBox="0 0 13 11" fill="none" xmlns="http://www.w3.org/2000/svg">
<path d="M5.74925 1.95C6.37819 1.62888 7.07903 1.47461 7.78468 1.50194C8.49032 1.52928 9.17713 1.73731 9.77934 2.10612C10.3816 2.47493 10.879 2.99216 11.2241 3.6083C11.5691 4.22443 11.7502 4.91883 11.75 5.625C11.75 5.72446 11.7895 5.81984 11.8598 5.89016C11.9302 5.96049 12.0255 6 12.125 6C12.2245 6 12.3198 5.96049 12.3902 5.89016C12.4605 5.81984 12.5 5.72446 12.5 5.625C12.5 4.33207 11.9864 3.09209 11.0721 2.17785C10.1579 1.26361 8.91793 0.75 7.625 0.75C6.33207 0.75 5.09209 1.26361 4.17785 2.17785C3.26361 3.09209 2.75 4.33207 2.75 5.625C2.74986 6.18122 2.87346 6.7305 3.11184 7.23304C3.35021 7.73559 3.6974 8.17882 4.12823 8.53061C4.55907 8.8824 5.06277 9.13394 5.60283 9.26702C6.14289 9.40009 6.70579 9.41135 7.25075 9.3C6.62181 9.62112 5.92097 9.77539 5.21532 9.74806C4.50968 9.72072 3.82287 9.51269 3.22066 9.14388C2.61845 8.77507 2.121 8.25784 1.77595 7.6417C1.4309 7.02557 1.2498 6.33117 1.25 5.625C1.25 5.52554 1.21049 5.43016 1.14017 5.35984C1.06984 5.28951 0.974456 5.25 0.875 5.25C0.775544 5.25 0.680161 5.28951 0.609835 5.35984C0.539509 5.43016 0.5 5.52554 0.5 5.625C0.5 6.91793 1.01361 8.15791 1.92785 9.07215C2.84209 9.98639 4.08207 10.5 5.375 10.5C6.66793 10.5 7.90791 9.98639 8.82215 9.07215C9.73639 8.15791 10.25 6.91793 10.25 5.625C10.2501 5.06878 10.1265 4.5195 9.88816 4.01696C9.64979 3.51441 9.3026 3.07118 8.87177 2.71939C8.44093 2.3676 7.93723 2.11606 7.39717 1.98298C6.85711 1.84991 6.29421 1.83865 5.74925 1.95ZM8 5.625C8 6.02282 7.84196 6.40436 7.56066 6.68566C7.27936 6.96696 6.89782 7.125 6.5 7.125C6.10218 7.125 5.72064 6.96696 5.43934 6.68566C5.15804 6.40436 5 6.02282 5 5.625C5 5.22718 5.15804 4.84564 5.43934 4.56434C5.72064 4.28304 6.10218 4.125 6.5 4.125C6.89782 4.125 7.27936 4.28304 7.56066 4.56434C7.84196 4.84564 8 5.22718 8 5.625Z" fill="#404944"/>
</svg>
