<svg width="12" height="8" viewBox="0 0 12 8" fill="none" xmlns="http://www.w3.org/2000/svg">
<path d="M6.00924 6.58096C6.00609 6.58176 6.00326 6.58217 6.00076 6.58217C5.85898 6.58217 4.64586 5.26938 4.64586 3.64997C4.64586 1.75331 5.82339 0.717773 6.00076 0.717773C6.14386 0.717773 6.93791 1.39812 7.23946 2.65181C7.23945 2.65182 7.23947 2.65181 7.23946 2.65181C7.3117 2.95213 7.3557 3.28532 7.3557 3.64996C7.3557 5.24095 6.18479 6.53599 6.00924 6.58096Z" fill="#404944"/>
<path d="M5.8424 6.63578C5.83546 6.63033 5.82848 6.62465 5.82147 6.6188C5.76881 6.57479 5.70549 6.51265 5.63613 6.43565C5.49699 6.28121 5.32737 6.0601 5.1629 5.78824C4.83465 5.24563 4.52052 4.49004 4.52052 3.64996C4.52052 3.24953 4.57159 2.88604 4.65448 2.56111C3.71986 1.79092 2.75006 1.6993 2.63714 1.77837C2.49184 1.88011 2.12123 3.40377 3.20911 4.95743C4.03513 6.13711 5.31791 6.70087 5.8424 6.63578Z" fill="#404944"/>
<path d="M7.346 2.56059C7.42954 2.88599 7.48107 3.24975 7.48107 3.64996C7.48107 4.49004 7.16694 5.24563 6.83869 5.78824C6.67422 6.0601 6.5046 6.28121 6.36546 6.43565C6.2961 6.51265 6.23278 6.57479 6.18012 6.6188C6.1731 6.62466 6.16611 6.63034 6.15916 6.6358C6.68379 6.70074 7.96647 6.13697 8.7924 4.95743C9.87466 3.4118 9.50966 1.88011 9.36437 1.77837C9.25132 1.69921 8.28277 1.78628 7.346 2.56059Z" fill="#404944"/>
<path d="M6.1192 6.75672C6.13748 6.75966 6.15601 6.76185 6.17465 6.76337C6.26554 6.77081 6.36856 6.76333 6.47879 6.74352C6.69937 6.70388 6.96176 6.61255 7.23842 6.47271C7.79205 6.19289 8.41757 5.71135 8.89513 5.02933C9.04811 4.81084 9.17306 4.5925 9.27439 4.37806C10.6801 4.27052 11.6263 4.91892 11.6652 5.06436C11.7111 5.23569 11.0062 6.64365 9.18361 7.132C7.8306 7.49454 6.52105 7.13289 6.1192 6.75672Z" fill="#404944"/>
<path d="M5.88207 6.75674C5.86385 6.75967 5.84538 6.76185 5.82679 6.76337C5.7359 6.77081 5.63289 6.76333 5.52266 6.74352C5.3021 6.70388 5.03972 6.61255 4.76307 6.47271C4.20948 6.19288 3.584 5.71135 3.10644 5.02933C2.95341 4.81078 2.82836 4.59265 2.72689 4.37862C1.32667 4.27328 0.375045 4.919 0.336105 5.06433C0.290196 5.23566 0.985682 6.64108 2.81772 7.13197C4.17069 7.4945 5.4802 7.13291 5.88207 6.75674Z" fill="#404944"/>
</svg>
