<svg width="13" height="12" viewBox="0 0 13 12" fill="none" xmlns="http://www.w3.org/2000/svg">
<path d="M2.5778 9.80629C2.63666 9.7068 2.68472 9.62084 2.73883 9.53798C2.75583 9.51238 2.78343 9.48842 2.8125 9.46902C2.90136 9.40024 2.99314 9.3406 3.08199 9.27182C3.19534 9.18511 3.31326 9.09693 3.42369 9.00108C3.48658 8.94565 3.55111 8.87962 3.57779 8.80555C3.62493 8.66948 3.72896 8.60088 3.83445 8.53685C3.91088 8.49221 3.99334 8.45067 4.06976 8.40603C4.20433 8.3226 4.33432 8.24064 4.46889 8.15722C4.56524 8.09611 4.64202 8.02112 4.72191 7.94008C4.81112 7.84094 4.9124 7.74802 5.01954 7.67338C5.30584 7.46574 5.59362 7.26268 5.88578 7.07333C6.16569 6.89294 6.46061 6.72791 6.75992 6.5766C6.82098 6.54695 6.88059 6.51274 6.93562 6.47999C7.21553 6.29961 7.49252 6.11008 7.74262 5.8838C7.79783 5.83587 7.85304 5.78795 7.90972 5.74459C8.27702 5.49085 8.64286 5.23254 9.01912 4.99105C9.19501 4.87927 9.39486 4.79509 9.58574 4.69867C9.76438 4.61121 9.94758 4.52228 10.1277 4.43939C10.1719 4.42018 10.2178 4.39036 10.265 4.38028C10.5054 4.32846 10.7283 4.22179 10.9541 4.12426C11.0167 4.09919 11.0792 4.07412 11.1432 4.05362C11.1523 4.05069 11.1719 4.06458 11.1809 4.07683C11.1869 4.07994 11.1836 4.10115 11.1805 4.10719C11.1743 4.11926 11.1635 4.13279 11.1527 4.14633C10.9407 4.36546 10.709 4.5707 10.458 4.74687C10.2942 4.86487 10.1454 4.99822 9.98908 5.1239C9.94466 5.15829 9.90626 5.19578 9.86184 5.23018C9.5386 5.47988 9.22141 5.73269 8.89067 5.97472C8.47876 6.27803 8.05204 6.55081 7.63281 6.83126C7.51653 6.90883 7.39732 6.97725 7.27061 7.038C6.94388 7.1981 6.65885 7.42549 6.38279 7.66512C6.11442 7.89725 5.83543 8.12775 5.54016 8.32313C5.37342 8.43198 5.20814 8.54541 5.03829 8.6603C4.98472 8.69762 4.92658 8.7364 4.87594 8.78287C4.71488 8.92518 4.53296 9.03386 4.34207 9.13028C4.20312 9.19999 4.06709 9.27885 3.91331 9.31803C3.85699 9.33102 3.80635 9.37749 3.75735 9.41334C3.67618 9.47463 3.58915 9.51762 3.48858 9.54984C3.27684 9.61262 3.06199 9.68144 2.85172 9.7488C2.77236 9.78429 2.67948 9.80901 2.5778 9.80629Z" fill="#404944"/>
<path d="M9.13789 1.17796C9.02329 1.37092 8.88361 1.50135 8.72601 1.60727C8.57445 1.7163 8.44246 1.83922 8.31486 1.97586C8.26714 2.03147 8.21193 2.07939 8.15379 2.11818C8.00077 2.22264 7.84481 2.31796 7.69032 2.41785C7.6276 2.4581 7.568 2.49231 7.50822 2.5417C7.29523 2.71073 7.06871 2.86897 6.83779 3.0135C6.795 3.03729 6.75368 3.06564 6.71237 3.094C6.54873 3.19682 6.4032 3.30896 6.28896 3.47156C6.26117 3.5107 6.22132 3.54362 6.18146 3.57655C6.06208 3.66016 5.94269 3.74376 5.82184 3.82279C5.78052 3.85115 5.73024 3.86726 5.68452 3.8819C5.53514 3.93479 5.39764 4.00907 5.26765 4.09103C5.17587 4.15067 5.06909 4.19496 4.97438 4.24546C4.81239 4.33767 4.6535 4.42384 4.49901 4.52373C4.37816 4.60277 4.24541 4.66041 4.11121 4.71348C3.7499 4.84433 3.39153 4.98432 3.03461 5.12889C2.8653 5.19825 2.71227 5.30271 2.58614 5.44392C2.48468 5.55202 2.3684 5.62959 2.22815 5.67955C1.95077 5.77344 1.69425 5.90097 1.44505 6.05136C1.27538 6.15107 1.09839 6.22792 0.912432 6.29253C0.907861 6.29399 0.901825 6.29089 0.89579 6.28778C0.904182 6.21957 0.941107 6.1775 0.997605 6.14932C1.23749 6.01704 1.45651 5.85112 1.662 5.67441C1.79692 5.56063 1.90788 5.41924 2.01884 5.27785C2.15137 5.1094 2.28079 4.94697 2.41332 4.77852C2.46414 4.71688 2.52538 4.67206 2.60602 4.65631C2.69123 4.63909 2.77809 4.61127 2.8664 4.58802C3.07339 4.54188 3.2491 4.44528 3.41456 4.31668C3.64583 4.14179 3.87857 3.97147 4.11734 3.80427C4.39744 3.6087 4.68046 3.42228 4.96202 3.23129C5.16861 3.08951 5.39167 2.96765 5.62206 2.86866C5.75023 2.81248 5.86797 2.73948 5.98279 2.65734C6.0945 2.58124 6.20164 2.5066 6.31334 2.4305C6.36381 2.39921 6.4203 2.37103 6.47533 2.33828C6.57315 2.28175 6.67536 2.23893 6.76568 2.17472C7.07338 1.95519 7.41365 1.80587 7.76288 1.66881C7.79031 1.66002 7.81774 1.65124 7.83913 1.63934C7.95851 1.55574 8.0984 1.53613 8.23518 1.52256C8.38714 1.50917 8.52738 1.45921 8.65738 1.37724C8.79944 1.3015 8.94607 1.22428 9.13789 1.17796Z" fill="#404944"/>
<path d="M10.3191 2.81988C10.1303 3.00134 9.93994 3.17822 9.74506 3.35657C9.7021 3.39554 9.64706 3.42828 9.5935 3.4656C9.29676 3.65642 8.99856 3.84266 8.68993 4.01209C8.55701 4.08491 8.43452 4.17454 8.31659 4.26272C8.23085 4.32547 8.16157 4.40814 8.07582 4.47089C7.60431 4.80841 7.13572 5.15508 6.59121 5.37485C6.5104 5.40578 6.42208 5.42903 6.33669 5.46142C6.14763 5.53206 5.97046 5.6241 5.80518 5.73752C5.37827 6.02547 4.95593 6.31196 4.52903 6.59992C4.43414 6.66559 4.33468 6.73273 4.27125 6.83369C4.24804 6.87137 4.20526 6.89516 4.17308 6.92058C4.05991 6.99212 3.94381 7.05451 3.8246 7.12293C3.68857 7.20179 3.55108 7.27607 3.42401 7.36717C3.2357 7.5031 3.02817 7.59477 2.81168 7.6742C2.59209 7.75966 2.36956 7.83598 2.16625 7.95655C2.14029 7.9699 2.10682 7.97558 2.058 7.99626C2.08632 7.91158 2.13386 7.87116 2.18596 7.82927C2.36842 7.67506 2.55984 7.5331 2.76479 7.40193C2.80611 7.37357 2.85054 7.33918 2.87375 7.3015C2.92018 7.22615 2.98599 7.17986 3.05638 7.13211C3.11452 7.09333 3.17577 7.04851 3.23391 7.00973C3.33794 6.94112 3.42551 6.85259 3.47997 6.73938C3.50647 6.68049 3.54943 6.64153 3.603 6.60421C3.7116 6.53414 3.81417 6.46096 3.92131 6.38632C3.98859 6.34461 4.04691 6.29065 4.08712 6.22736C4.12587 6.15951 4.18401 6.12073 4.24672 6.08048C4.37835 5.98791 4.51603 5.89845 4.64913 5.81045C4.69502 5.78063 4.74548 5.74935 4.78387 5.71185C4.93268 5.5785 5.09925 5.48482 5.27934 5.40193C5.45798 5.31447 5.63369 5.21787 5.80793 5.11669C6.02349 4.98716 6.24948 4.87445 6.46797 4.75406C6.54896 4.70796 6.63453 4.66039 6.71406 4.60971C6.95723 4.45622 7.196 4.28901 7.4452 4.13862C7.56295 4.06562 7.70009 4.0217 7.82076 3.95784C8.08953 3.82135 8.35684 3.68028 8.61811 3.53611C8.95728 3.35186 9.29644 3.16762 9.63103 2.98484C9.72574 2.93434 9.82338 2.89299 9.9298 2.87906C10.0348 2.86056 10.1368 2.83292 10.2403 2.80985C10.2586 2.80399 10.2798 2.80728 10.3041 2.80453C10.3041 2.80453 10.3162 2.81074 10.3191 2.81988Z" fill="#404944"/>
<path d="M4.05117 10.7566C4.07546 10.6278 4.16284 10.5545 4.24713 10.4872C4.38808 10.3765 4.52904 10.2658 4.67293 10.1643C5.15651 9.83297 5.64156 9.50623 6.13264 9.1826C6.31931 9.05728 6.51184 8.95025 6.69851 8.82493C7.02906 8.59808 7.37004 8.38806 7.68724 8.13525C8.05198 7.84201 8.44067 7.57638 8.84272 7.33671C9.10107 7.18339 9.35648 7.02093 9.61483 6.86761C9.7035 6.81401 9.79821 6.76351 9.89438 6.71758C10.1173 6.61091 10.3283 6.48284 10.5242 6.33942C10.7202 6.196 10.925 6.08 11.1552 5.99618C11.268 5.955 11.3796 5.89408 11.4909 5.84833C11.6694 5.77605 11.8539 5.70687 12.0566 5.63184C12.0316 5.6953 11.9934 5.71762 11.9598 5.73847C11.8449 5.82061 11.7347 5.90129 11.6184 5.97886C11.4041 6.12814 11.1928 6.28656 10.9979 6.46491C10.9396 6.51887 10.8798 6.56827 10.8186 6.61309C10.4311 6.89847 10.0437 7.18385 9.6534 7.46009C9.52176 7.55265 9.37513 7.62987 9.2391 7.70872C9.11678 7.78318 8.98093 7.84686 8.86155 7.93046C8.54324 8.14835 8.19512 8.32034 7.86492 8.51683C7.55154 8.7029 7.2442 8.89207 6.96814 9.1317C6.92061 9.17213 6.87161 9.20799 6.82114 9.23927C6.57944 9.39734 6.3317 9.55229 6.09 9.71036C6.00279 9.76854 5.91705 9.83128 5.8313 9.89403C5.69966 9.9866 5.56803 10.0792 5.43786 10.1763C5.38429 10.2136 5.33218 10.2555 5.28154 10.302C5.18648 10.3828 5.08848 10.4545 4.97109 10.4972C4.84603 10.5473 4.727 10.6006 4.59315 10.6233C4.5019 10.6374 4.4103 10.6819 4.3293 10.728C4.24209 10.7861 4.15231 10.8048 4.05117 10.7566Z" fill="#404944"/>
<path d="M6.45263 6.77551C6.41588 6.8024 6.37492 6.8004 6.33432 6.76805C6.37528 6.77005 6.41624 6.77205 6.45263 6.77551C6.45409 6.78008 6.45263 6.77551 6.45263 6.77551Z" fill="#404944"/>
</svg>
